<svg xmlns="http://www.w3.org/2000/svg" width="512" height="512" viewBox="0 0 512 512" fill="none">
  <rect width="512" height="512" fill="#201e1d"></rect>
  <g transform="translate(112,112) scale(3)">
    <g fill="#f3f2f2">
      <rect x="0" y="0" width="21" height="21"></rect>
      <rect x="25" y="0" width="21" height="21"></rect>
      <rect x="75" y="0" width="21" height="21"></rect>
      <rect x="0" y="25" width="21" height="21"></rect>
      <rect x="25" y="25" width="21" height="21"></rect>
      <rect x="50" y="25" width="21" height="21"></rect>
      <rect x="75" y="25" width="21" height="21"></rect>
      <rect x="0" y="50" width="21" height="21"></rect>
      <rect x="50" y="50" width="21" height="21"></rect>
      <rect x="75" y="50" width="21" height="21"></rect>
      <rect x="0" y="75" width="21" height="21"></rect>
      <rect x="25" y="75" width="21" height="21"></rect>
      <rect x="50" y="75" width="21" height="21"></rect>
      <rect x="75" y="75" width="21" height="21"></rect>
    </g>
    <rect x="50" y="0" width="21" height="21" fill="#ec3013"></rect>
    <rect x="26" y="51" width="19" height="19" fill="none" stroke="#f3f2f2" stroke-width="2"></rect>
  </g>
</svg>